<?xml version="1.0" encoding="UTF-8" standalone="no"?>
<!-- Generator: Adobe Illustrator 21.0.0, SVG Export Plug-In . SVG Version: 6.00 Build 0)  -->

<svg
   xmlns:dc="http://purl.org/dc/elements/1.1/"
   xmlns:cc="http://creativecommons.org/ns#"
   xmlns:rdf="http://www.w3.org/1999/02/22-rdf-syntax-ns#"
   xmlns:svg="http://www.w3.org/2000/svg"
   xmlns="http://www.w3.org/2000/svg"
   xmlns:sodipodi="http://sodipodi.sourceforge.net/DTD/sodipodi-0.dtd"
   xmlns:inkscape="http://www.inkscape.org/namespaces/inkscape"
   version="1.1"
   id="Layer_1"
   x="0px"
   y="0px"
   viewBox="0 0 453.65704 289.08805"
   xml:space="preserve"
   sodipodi:docname="Soprole_2016.svg"
   width="453.65704"
   height="289.08804"
   inkscape:version="0.92.3 (2405546, 2018-03-11)"><metadata
   id="metadata1321"><rdf:RDF><cc:Work
       rdf:about=""><dc:format>image/svg+xml</dc:format><dc:type
         rdf:resource="http://purl.org/dc/dcmitype/StillImage" /><dc:title></dc:title></cc:Work></rdf:RDF></metadata><defs
   id="defs1319" /><sodipodi:namedview
   pagecolor="#ffffff"
   bordercolor="#666666"
   borderopacity="1"
   objecttolerance="10"
   gridtolerance="10"
   guidetolerance="10"
   inkscape:pageopacity="0"
   inkscape:pageshadow="2"
   inkscape:window-width="1366"
   inkscape:window-height="745"
   id="namedview1317"
   showgrid="false"
   fit-margin-top="0"
   fit-margin-left="0"
   fit-margin-right="0"
   fit-margin-bottom="0"
   inkscape:zoom="0.65954481"
   inkscape:cx="138.5899"
   inkscape:cy="211.50916"
   inkscape:window-x="-8"
   inkscape:window-y="-8"
   inkscape:window-maximized="1"
   inkscape:current-layer="g1314" />
<style
   type="text/css"
   id="style1222">
	.st0{fill:#003660;}
	.st1{fill:#FFFFFF;}
	.st2{fill:#E2231A;}
</style>
<g
   id="g1314"
   transform="translate(35.905507,95.476483)">
	
	
	
	<g
   id="g1312"
   transform="matrix(1.4704376,0,0,1.4704376,-36.708875,-97.388052)">
		<path
   class="st1"
   d="M 308.6,134.5 C 310,128 308.2,122.2 303.7,118 v 0 c -1.8,-1.7 -3.8,-3.1 -6.2,-4 -3,-1.2 -6.3,-1.7 -9.9,-1.7 -1.8,0 -3.7,0.1 -5.7,0.4 -4.2,0.6 -8.3,2.1 -12.1,4.4 l -2.8,1.7 0.6,-3.2 c 0.7,-3.9 1.4,-7.7 2,-11 l 1,-5.6 c 0.4,-2.2 -0.2,-4.4 -1.6,-6 -1.4,-1.7 -3.4,-2.6 -5.6,-2.6 h -16 c -3.6,0 -6.6,2.5 -7.2,6 l -4.3,23.5 -1.9,-1.4 c -4.5,-3.3 -10.1,-5.1 -16,-5.1 h -0.9 c -5.2,0.1 -10.6,1.5 -15.6,4.2 l -1.1,0.6 -0.8,-1 c -0.5,-0.7 -1.1,-1.4 -1.8,-1.8 -2.5,-1.7 -6.1,-2.1 -8.6,-2.1 -2,0 -4.1,0.3 -6.1,1 h -20.3 c -2.9,0 -5.6,1.8 -6.7,4.5 l -0.8,1.8 -1.5,-1.3 c -3.8,-3.2 -8.4,-5 -13.3,-5.2 -0.3,0 -0.6,0 -0.9,0 -0.1,0 -0.2,0 -0.3,0 -0.1,0 -0.3,0 -0.4,0 l -4.5,0.2 3.5,-2.9 c 2.4,-2 4.6,-4.1 6.5,-6.3 10.9,-13 14,-31.2 8.1,-47.6 -1.8,-4.8 -4.2,-9.4 -7.4,-14.1 -4.4,-6.3 -10.4,-12.1 -15.8,-17.2 l -0.4,-0.4 c -0.3,-0.3 -0.7,-0.6 -1,-0.9 l -0.6,-0.6 0.2,-0.8 c 0.6,-3.2 1,-5.9 0.7,-8.6 -0.8,-8 -6.4,-13.6 -13.5,-13.6 -0.1,0 -0.3,0 -0.4,0 h -0.1 c -7.1,0.3 -12.3,6 -12.8,13.8 -0.2,2.7 0.3,5.6 1.2,8.7 l 0.4,1.1 -1.8,1.1 c -0.5,0.3 -1.1,0.6 -1.2,0.7 -4.5,2.9 -6.3,4.1 -9.7,6.6 C 84,37.6 78.7,42.1 74.1,47 70.9,50.5 68.1,54.4 65.7,58.5 59.9,68.6 57.9,80 60.1,90.6 L 60.7,93.5 58,92.3 C 52.8,90 46.4,88.6 40.4,88.6 c -6.7,0 -13,1.7 -18.2,4.8 -7.3,4.5 -12.6,12 -14.1,20.2 -1.3,7 0.3,13.8 4.4,19.1 0.8,1.1 1.8,2.1 2.8,3.2 0.3,0.2 0.6,0.6 1,0.9 0.1,0.1 0.2,0.2 0.2,0.2 v 0 c 0.1,0.1 0.2,0.2 0.3,0.3 1.3,1.3 1.7,2.5 1.7,2.5 -1,-0.6 -1.9,-1.5 -3.7,-2.3 -1.6,-0.6 -3.4,-0.6 -5.1,0.1 -1.3,0.5 -3.7,2.5 -4.5,3.6 -5,6.5 -7.1,16.6 -0.5,24.4 4.5,5.4 10.2,7.7 13.1,8.7 h 0.1 c 0,0 0.1,0 0.1,0 0.7,0.2 1.3,0.3 1.8,0.5 l 0.2,0.1 c 3.1,0.7 6.3,1.2 9.4,1.4 0.5,0 1,0 1.5,0 H 31 c 9.2,0 17.9,-3.4 24,-9.3 l 1.1,-1.1 1,1.2 c 0,0.1 0.1,0.1 0.1,0.2 l 0.1,0.1 c 5,5.9 12.3,9.2 20.5,9.3 h 0.4 c 0.1,0 0.4,0 0.4,0 5.1,-0.1 10.5,-1.5 15.3,-4 l 2.7,-1.4 -3.2,18 c -0.4,2.2 0.2,4.3 1.6,6 1.4,1.7 3.5,2.6 5.6,2.6 h 15.5 c 3.6,0 6.6,-2.5 7.2,-6 l 2.8,-15.3 1.4,0.2 c 1.3,0.2 2.6,0.3 3.8,0.3 3.7,0 7.4,-0.7 10.4,-2 1.6,-0.7 3.2,-1.5 4.7,-2.5 l 1.1,-0.7 0.9,1 c 1.4,1.6 3.4,2.6 5.6,2.6 h 15.8 c 3.5,0 6.6,-2.5 7.2,-6 l 3.9,-21.2 c 0,0 -1.5,10.7 6.6,19.7 1.6,1.8 5,4.4 5,4.4 h -5.3 c -2.1,0 -3.9,1.5 -4.3,3.5 l -3.1,15.7 c -0.3,1.3 0.1,2.6 0.9,3.6 0.8,1 2.1,1.6 3.4,1.6 h 6.5 c 2.4,0 4.6,-0.6 6.6,-1.7 l 0.8,-0.5 0.8,0.5 c 1.6,1.2 3.7,1.8 5.9,1.8 0.9,0 32.9,0 32.9,0 2.2,0 4.1,-0.5 5.8,-1.4 l 1,-0.6 0.3,0.3 0.5,0.4 c 0.8,0.7 1.8,1.3 2.9,1.3 0,0 35.5,0 36.5,0 4.2,0 7.9,-1.7 10.2,-4.7 2.1,-2.8 3.1,-6.4 3,-10.4 0,-0.3 -0.1,-0.7 -0.1,-1.1 l -0.4,-2.1 2.2,0.2 c 0.1,0 0.2,0 0.3,0 1.6,0 3.1,-0.6 4.3,-1.8 1.2,-1.1 1.8,-2.7 1.8,-4.3 0,-2.5 -1.7,-4.9 -4.1,-5.8 l -1.2,-0.4 2.2,-13.1 c 0.3,-1.6 0,-3.3 -0.7,-4.8 l -0.5,-0.9 0.7,-0.8 c 4,-4.4 5.6,-9.2 6.3,-12.4 z"
   id="path1270"
   inkscape:connector-curvature="0"
   style="fill:#ffffff" />
		<path
   class="st2"
   d="m 187.3,176.4 h 4.8 c 4.3,0 6.9,2.3 7,6.4 0.2,4.7 -2.6,9.3 -8.4,9.3 h -6.4 z m 3.2,13.2 c 4.1,0 5.1,-4 5.1,-6.8 -0.1,-2.1 -0.9,-3.9 -3.4,-3.9 h -1.8 l -2.1,10.7 z"
   id="path1272"
   inkscape:connector-curvature="0"
   style="fill:#e2231a" />
		<path
   class="st2"
   d="m 199.6,187.4 c -0.1,-3.8 2.1,-7.3 6,-7.3 2.8,0 4.3,1.7 4.4,4.2 0,0.8 -0.1,1.7 -0.3,2.6 h -6.9 v 0.4 c 0.1,1.9 0.9,2.6 2.3,2.6 1.1,0 2,-0.3 2.9,-0.8 h 1.1 l -0.4,2.2 c -0.8,0.5 -2.1,0.9 -3.8,0.9 -3.3,0 -5.2,-1.6 -5.3,-4.8 M 203,185 h 4.1 c 0.1,-0.3 0.1,-0.6 0.1,-0.9 0,-1.2 -0.7,-1.9 -1.7,-1.9 -1.3,0 -2.2,1.1 -2.5,2.8"
   id="path1274"
   inkscape:connector-curvature="0"
   style="fill:#e2231a" />
		<path
   class="st2"
   d="m 209.9,191.1 0.4,-2.2 h 1.1 c 0.5,0.6 1.4,1 2.6,1 1,0 1.9,-0.3 1.8,-1.1 0,-0.6 -0.5,-0.9 -1.6,-1.3 -2,-0.7 -3.1,-1.5 -3.2,-3.3 -0.1,-2.4 1.7,-4 4.6,-4 1.8,0 3,0.5 3.8,1.1 l -0.4,2.1 h -1 c -0.5,-0.5 -1.4,-0.9 -2.4,-0.9 -1.1,0 -1.7,0.4 -1.7,1.1 0,0.5 0.4,0.8 1.7,1.2 1.8,0.6 3.1,1.3 3.2,3.2 0.1,2.5 -1.8,4.1 -4.9,4.1 -2,0.1 -3.3,-0.5 -4,-1"
   id="path1276"
   inkscape:connector-curvature="0"
   style="fill:#e2231a" />
		<path
   class="st2"
   d="m 227.2,190.6 c -0.8,1 -1.9,1.6 -3.3,1.6 -2.1,0 -3.8,-1.2 -3.9,-4.3 -0.1,-4.4 2.4,-7.8 6,-7.8 1.3,0 2.2,0.4 2.8,1.1 l 0.9,-4.9 h 2 c 0.8,0 1.2,0.3 0.9,1.9 l -2.7,13.8 h -0.8 c -1.2,0.1 -1.8,-0.5 -1.9,-1.4 m 0.1,-1.5 1.1,-5.8 c -0.3,-0.3 -0.9,-0.7 -1.8,-0.7 -2.2,0 -3.4,2.3 -3.4,5.2 0,1.5 0.5,2.2 1.8,2.2 0.7,0 1.5,-0.3 2.3,-0.9"
   id="path1278"
   inkscape:connector-curvature="0"
   style="fill:#e2231a" />
		<path
   class="st2"
   d="m 232.5,187.4 c -0.1,-3.8 2.1,-7.3 6,-7.3 2.8,0 4.3,1.7 4.4,4.2 0,0.8 -0.1,1.7 -0.3,2.6 h -6.9 v 0.4 c 0.1,1.9 0.9,2.6 2.4,2.6 1.1,0 2,-0.3 2.8,-0.8 h 1 l -0.4,2.3 c -0.8,0.5 -2.1,0.9 -3.8,0.9 -3.2,-0.1 -5.1,-1.7 -5.2,-4.9 m 3.4,-2.4 h 4.1 c 0,-0.3 0.1,-0.6 0,-0.9 0,-1.2 -0.7,-1.9 -1.7,-1.9 -1.2,0 -2.1,1.1 -2.4,2.8"
   id="path1280"
   inkscape:connector-curvature="0"
   style="fill:#e2231a" />
		<polygon
   class="st2"
   points="248.6,181.2 247.7,181.2 248.1,178.7 252.5,176.4 254.9,176.4 251.8,192.1 248.3,192.1 250.6,180.2 "
   id="polygon1282"
   style="fill:#e2231a" />
		<path
   class="st2"
   d="m 254.9,191.3 0.5,-2.3 h 1.3 c 0.5,0.5 1.3,0.8 2.4,0.8 1.6,0 2.9,-0.6 3.7,-1.6 0.6,-0.8 1.1,-1.9 1.3,-3 -0.9,0.8 -2.2,1.2 -3.8,1.2 -2.6,0 -4.4,-1.5 -4.4,-4 -0.1,-3.5 2.6,-6.1 6.2,-6.1 3.2,0 5.6,2 5.7,5.4 0.1,3 -0.6,5.6 -2.1,7.6 -1.4,1.9 -3.7,3 -6.7,3 -1.9,0 -3.1,-0.4 -4.1,-1 m 9.3,-8 c 0,-0.6 0.1,-1.2 0,-1.9 0,-1.6 -0.6,-2.9 -2.3,-2.9 -1.8,0 -3,1.3 -2.9,3.5 0.1,1.3 0.9,2 2.4,2 1,0 2.1,-0.3 2.8,-0.7"
   id="path1284"
   inkscape:connector-curvature="0"
   style="fill:#e2231a" />
		<path
   class="st2"
   d="m 280.7,191.3 0.5,-2.3 h 1.3 c 0.6,0.5 1.3,0.8 2.4,0.8 1.6,0 2.9,-0.6 3.7,-1.6 0.7,-0.8 1.1,-1.9 1.3,-3.1 -0.9,0.8 -2.2,1.2 -3.7,1.2 -2.6,0 -4.4,-1.5 -4.4,-4 -0.1,-3.5 2.5,-6.1 6.2,-6.1 3.2,0 5.6,2 5.7,5.4 0.1,3 -0.6,5.6 -2.1,7.6 -1.4,1.9 -3.7,3 -6.7,3 -2,0.1 -3.2,-0.3 -4.2,-0.9 m 9.3,-8 c 0.1,-0.6 0.1,-1.2 0,-1.9 0,-1.5 -0.6,-2.9 -2.3,-2.9 -1.8,0 -3,1.3 -2.9,3.5 0,1.3 0.8,2 2.3,2 1.1,0 2.3,-0.3 2.9,-0.7"
   id="path1286"
   inkscape:connector-curvature="0"
   style="fill:#e2231a" />
		<path
   class="st2"
   d="m 274.6,188.8 h -7 l 0.6,-2.9 9,-9.4 h 3.3 l -1.9,9.9 h 1.9 l -0.5,2.4 h -2 l -0.7,3.3 h -3.4 z m 0.4,-2.5 1.1,-5.8 H 276 l -5.3,5.6 v 0.1 h 4.3 z"
   id="path1288"
   inkscape:connector-curvature="0"
   style="fill:#e2231a" />
		<path
   class="st2"
   d="m 193.4,121.4 c -0.6,-0.4 -2.2,-0.8 -4.5,-0.8 -4.4,0 -9.1,3.1 -11.6,6.2 l 1.2,-5.2 h -16.1 l -8.4,46.2 h 15.8 l 4.9,-27 c 1.3,-3.3 5.4,-6.6 9.7,-7.1 2.4,-0.3 4.6,-0.1 6.4,1 z"
   id="path1290"
   inkscape:connector-curvature="0"
   style="fill:#e2231a" />
		<path
   class="st2"
   d="m 247.2,97.7 -12.6,69.5 h 16.2 l 0.1,-0.3 c 0,-0.3 12.4,-69.2 12.4,-69.2 z"
   id="path1292"
   inkscape:connector-curvature="0"
   style="fill:#e2231a" />
		<path
   class="st2"
   d="m 277.3,168.2 c -5.3,-0.2 -10.9,-1.7 -14.3,-5.3 -2.4,-2.6 -3.7,-5.7 -4.2,-9.2 -0.5,-4 -0.2,-8 1,-11.9 1.7,-5.6 4.4,-10.5 8.7,-14.6 1.2,-1.1 2.4,-2.1 3.7,-3 v 0 c 0,0 0,0 0.1,0 3.2,-2.2 6.7,-3.6 10.6,-4.1 4,-0.6 8,-0.6 11.9,0.9 1.5,0.6 2.8,1.4 3.8,2.5 2.4,2.1 3.7,5.3 2.8,9.6 -3,14.3 -18.5,17.3 -28.3,17.8 0.4,3.5 3.8,5.4 7.1,5.6 6.4,0.5 13.3,-2.6 15.6,-4.5 l -2.3,13.1 c 0,0 -7.1,3.4 -16.2,3.1 m -3.5,-27.1 c 3.6,-0.3 13.3,-1.7 14.1,-7.6 0.5,-4 -3.8,-5.2 -8.4,-1.5 -3.3,2.7 -5.1,7.3 -5.4,8.1 -0.2,0.3 -0.2,0.7 -0.3,1"
   id="path1294"
   inkscape:connector-curvature="0"
   style="fill:#e2231a" />
		<path
   class="st2"
   d="m 151.7,128.1 c -3,-4.2 -7.3,-6.5 -11.8,-6.6 -4.2,-0.2 -8.4,1.4 -12,4.1 l 0.7,-4.1 h -15.5 l -12.4,68.9 h 15.5 l 4.4,-24.5 c 5.8,4.8 14.3,3.9 18.4,2.2 4.6,-2 8.9,-5.7 11.6,-10.8 2.6,-4.8 4,-10.7 4.1,-16.4 0.2,-4.6 -0.6,-9.3 -3,-12.8 m -12.1,16.6 c 0,0.1 0,0.2 -0.1,0.2 0,0.1 0,0.1 0,0.2 -1.2,6.6 -5,13.5 -10.5,13.1 -3.2,-0.2 -4.7,-1.3 -6.4,-3 l 3.1,-18.6 c 1.8,-2.9 4.4,-4.9 7.8,-5 5.8,-0.3 7.2,6.5 6.1,13.1"
   id="path1296"
   inkscape:connector-curvature="0"
   style="fill:#e2231a" />
		<path
   class="st2"
   d="m 232.7,127.4 c -3.6,-4.2 -9,-6.6 -15,-6.7 h -0.3 v 0 0 h -0.3 c -6.1,0.1 -12.3,2.5 -17.5,6.7 -5.5,4.6 -8.5,10.9 -9.7,17.5 -1.2,6.6 -0.5,12.9 3.4,17.5 3.6,4.2 9,6.6 15,6.7 h 0.3 v 0 0 h 0.3 c 6.1,-0.1 12.3,-2.5 17.5,-6.7 5.6,-4.6 8.5,-10.9 9.7,-17.5 1.1,-6.6 0.5,-12.9 -3.4,-17.5 m -11.5,16.9 c 0,0.1 0,0.2 0,0.2 -1.2,6.7 -4.7,13.8 -10.6,13.7 v 0 0 c -6,0 -6.8,-7.1 -5.6,-13.7 0,-0.1 0,-0.1 0,-0.2 0,-0.1 0,-0.1 0,-0.2 1.2,-6.7 4.7,-13.8 10.6,-13.7 v 0 0 c 5.9,0 6.8,7.1 5.6,13.7 0,0.1 0,0.2 0,0.2"
   id="path1298"
   inkscape:connector-curvature="0"
   style="fill:#e2231a" />
		<path
   class="st2"
   d="m 102.4,127.4 c -3.6,-4.2 -9,-6.6 -15,-6.7 h -0.3 v 0 0 h -0.3 c -6.1,0.1 -12.3,2.5 -17.5,6.7 -5.6,4.6 -8.5,10.9 -9.7,17.5 -1.2,6.6 -0.5,12.9 3.4,17.5 3.6,4.2 8.9,6.6 15,6.7 h 0.3 v 0 0 h 0.3 c 6.1,-0.1 12.3,-2.5 17.5,-6.7 5.6,-4.6 8.5,-10.9 9.7,-17.5 1.1,-6.6 0.5,-12.9 -3.4,-17.5 m -11.5,16.9 c 0,0.1 0,0.2 0,0.2 -1.2,6.7 -4.7,13.8 -10.6,13.7 v 0 0 c -6,0 -6.8,-7.1 -5.6,-13.7 0,-0.1 0,-0.1 0.1,-0.2 0,-0.1 0,-0.1 0,-0.2 1.2,-6.7 4.7,-13.8 10.6,-13.7 v 0 0 c 6,0 6.8,7.1 5.6,13.7 -0.1,0.1 -0.1,0.2 -0.1,0.2"
   id="path1300"
   inkscape:connector-curvature="0"
   style="fill:#e2231a" />
		<path
   class="st2"
   d="m 39.3,123.3 c -3.6,-2.5 -9.1,-4.7 -7.4,-10.1 1.8,-5.8 12.5,-7.4 24.6,1.3 L 59.9,102 C 55.5,97.5 38.5,92 26,99.6 c -10.4,6.3 -14.3,20 -7.7,28.4 4.7,5.9 11.9,9.2 16.9,12.6 4.2,2.9 6.7,5.8 5.2,9.8 -3.3,8.8 -22.9,2.3 -29.3,-4.8 0,0 -6.5,8.3 -0.7,15.2 3.3,3.9 7.5,5.7 9.7,6.4 0.5,0.1 1.1,0.3 1.6,0.4 v 0 0 c 2.6,0.6 5.4,1 8.1,1.2 8.8,0.4 23.2,-3.9 26.3,-19 3.3,-16.6 -8.7,-20.7 -16.8,-26.5"
   id="path1302"
   inkscape:connector-curvature="0"
   style="fill:#e2231a" />
		<path
   class="st2"
   d="m 81.3,65.7 c -1.7,4.5 -1.5,9.4 -0.2,13.6 2.7,8.6 11.8,12.5 19.5,13.2 9.1,0.9 18.2,-2.4 23.9,-8.6 4.4,-4.8 6.5,-11.5 5.9,-18.2 h -6 c -0.6,0 -1,0.7 -0.6,1.2 l 1.2,1.6 c 0.2,0.3 0.2,0.6 0,0.9 -0.7,1 -2,2.6 -3.1,3.8 -5.8,5.9 -14,8.6 -22.2,8.1 -6,-0.5 -11.3,-2.2 -14.5,-7.8 -0.9,-1.5 -1.2,-3.6 -1.3,-4.2 0,-0.2 0,-0.5 0.2,-0.6 l 1.3,-1.6 c 0.5,-0.6 0.2,-1.3 -0.7,-1.3 h -3.4 z"
   id="path1304"
   inkscape:connector-curvature="0"
   style="fill:#e2231a" />
		<path
   class="st2"
   d="m 112.1,15.9 c 0,-5.2 6.9,-3.5 3.3,7.7 0,0 -3.3,-3.6 -3.3,-7.7 m -4.2,32.7 c 6.4,-5.9 8.7,-14.9 8.7,-14.9 0,0 9.2,9.7 12.5,14.5 4.3,6.2 6.7,10.9 7.8,14.7 3.4,10.7 1.4,22.9 -6.3,31.3 -7.6,8.4 -19.5,12.2 -30.6,11.1 -11.1,-1.1 -22.3,-6.8 -25.8,-18 -2.3,-7.6 -1.3,-15.9 2.1,-23 8.2,-17.2 27.8,-29.7 29.9,-31.3 0.7,-0.5 0.7,-0.9 0.5,-1.2 -0.2,-0.2 -0.5,-0.3 -1.2,0 -0.3,0.2 -1.8,1.1 -2.1,1.2 -4.4,2.8 -6.1,4 -9.4,6.4 -5.2,3.8 -10,7.9 -14.4,12.6 -2.6,2.9 -5.2,6.3 -7.5,10.2 -5.4,9.4 -7.3,20.7 -3.6,31 4.9,13.8 18.8,21.4 32.9,22.4 13.8,0.9 28,-4.5 37,-15.1 9.4,-11.2 11.7,-26.7 6.8,-40.4 -1.7,-4.5 -4,-8.7 -6.5,-12.4 C 133.4,40 125.2,33 119,26.8 c 0.8,-4.4 1.8,-8.2 1.5,-11.1 -0.3,-3.3 -2.3,-7.1 -6.4,-7 -3.9,0.2 -5.6,3.6 -5.8,6.9 -0.4,6.9 5.4,14.6 5.4,14.6 0,0 -1.8,7.6 -7,15.4 -3.3,4.9 -0.2,4.4 1.2,3"
   id="path1306"
   inkscape:connector-curvature="0"
   style="fill:#e2231a" />
		<path
   class="st2"
   d="m 301,175.2 -1.1,-1.6 c -0.5,-0.8 -0.6,-0.8 -0.9,-0.8 h -0.1 v 2.4 H 298 v -5.5 h 1.7 c 1.3,0 2,0.5 2,1.5 0,0.9 -0.6,1.4 -1.4,1.5 v 0 c 0.1,0.1 0.3,0.3 0.6,0.8 l 1.2,1.7 z m -1.4,-4.8 h -0.7 v 1.7 h 0.7 c 0.7,0 1,-0.3 1,-0.8 0.1,-0.6 -0.3,-0.9 -1,-0.9 z"
   id="path1308"
   inkscape:connector-curvature="0"
   style="fill:#e2231a" />
		<path
   class="st2"
   d="m 299.8,177 c -2.5,0 -4.5,-2 -4.5,-4.5 0,-2.5 2,-4.5 4.5,-4.5 2.5,0 4.5,2 4.5,4.5 0.1,2.5 -2,4.5 -4.5,4.5 z m 0,-8.4 c -2.1,0 -3.9,1.7 -3.8,3.8 0,2.1 1.7,3.9 3.8,3.9 2.1,0 3.8,-1.7 3.8,-3.9 0.1,-2.1 -1.7,-3.8 -3.8,-3.8 z"
   id="path1310"
   inkscape:connector-curvature="0"
   style="fill:#e2231a" />
	</g>
</g>
</svg>